<svg xmlns="http://www.w3.org/2000/svg" xmlns:xlink="http://www.w3.org/1999/xlink" fill="none" version="1.1" width="128" height="128" viewBox="0 0 128 128"><defs><clipPath id="master_svg0_11_152"><rect x="0" y="0" width="128" height="128" rx="0"/></clipPath></defs><g clip-path="url(#master_svg0_11_152)"><g><path d="M31.943591796875,83.894L31.867991796875,109.969C31.862691796875,110.704,31.065991796875,111.159,30.430691796875,110.79L7.736942796875,97.688C7.440263796875,97.5176,7.257121562875,97.2018,7.256591796875,96.8597L7.332237696875,70.7846C7.3374948968750004,70.05,8.134196796874999,69.5951,8.769511796875,69.9638L31.463291796875,83.0657C31.757691796875,83.2383,31.939991796875,83.5527,31.943591796875,83.894ZM32.030591796875,49.9706L31.954991796875,76.042C31.952191796875,76.7741,31.161791796875,77.232,30.525191796875,76.8703L7.831499796875,63.7609C7.534822796875,63.5905,7.351680796875,63.2747,7.351148596875,62.9325L7.426794796875,36.8612C7.425759796875,36.5202,7.607018796875,36.2046,7.902109796875,36.0336C8.197200796875,35.8627,8.561151796875,35.8624,8.856501796875,36.0329L31.550191796875,49.1423C31.852991796875,49.3028,32.038991796874996,49.6206,32.030591796875,49.9631L32.030591796875,49.9706ZM61.460591796875,100.937L61.384991796875,127.008C61.385191796875,127.351,61.202491796875,127.667,60.905891796875,127.838C60.609191796875,128.009,60.243791796875,128.009,59.947691796875,127.837L37.253891796874996,114.727C36.957291796875,114.557,36.774091796875,114.241,36.773591796874996,113.899L36.849191796875004,87.8276C36.848191796875,87.4865,37.029491796875,87.1709,37.324591796875,87C37.619691796875,86.829,37.983591796875004,86.8287,38.278891796875,86.9993L60.972691796875,100.109C61.267591796875,100.277,61.450591796875,100.59,61.452991796875,100.929L61.460591796875,100.937ZM96.026891796875,83.894C96.025391796875,83.5533,96.209491796875,83.2388,96.507291796875,83.0732L119.200591796875,69.9601C119.497591796875,69.7882,119.862591796875,69.7876,120.159591796875,69.9586C120.455591796875,70.1295,120.638591796875,70.446,120.638591796875,70.7884L120.713591796875,96.8635C120.711591796875,97.2021,120.530591796875,97.5143,120.237591796875,97.6842L97.543591796875,110.797C97.247491796875,110.969,96.882091796875,110.97,96.585491796875,110.799C96.288791796875,110.628,96.106091796875,110.312,96.106391796875,109.969L96.026891796875,83.894ZM95.939991796875,49.9706C95.933191796875,49.6276,96.116591796875,49.3089,96.416491796875,49.1423L119.110591796875,36.0329C119.745591796875,35.6641,120.542591796875,36.1191,120.547591796875,36.8537L120.623591796875,62.9288C120.622591796875,63.2709,120.439591796875,63.5867,120.142591796875,63.7571L97.449091796875,76.8665C97.152991796875,77.0384,96.787591796875,77.0389,96.490891796875,76.868C96.194291796875,76.697,96.011591796875,76.3806,96.011791796875,76.0382L95.939991796875,49.9706ZM66.51369179687501,100.937C66.509491796875,100.595,66.692191796875,100.277,66.990291796875,100.109L89.684091796875,86.9993C90.319391796875,86.6305,91.116091796875,87.0855,91.121291796875,87.82L91.196991796875,113.895C91.197191796875,114.236,91.015591796875,114.552,90.720391796875,114.723L68.026691796875,127.833C67.73029179687501,128.007,67.363491796875,128.008,67.065591796875,127.837C66.767791796875,127.666,66.584591796875,127.348,66.58559179687501,127.005L66.51369179687501,100.937ZM64.603691796875,27.9955C64.308691796875,28.1705,63.941791796875,28.1705,63.646791796875,27.9955L40.952991796875,14.8861C40.320291796875,14.5168,40.320291796875,13.6026,40.952991796875,13.2333L63.468991796875,0.127619C63.765291796875,-0.0425396,64.12959179687499,-0.0425396,64.42589179687499,0.127619L87.119691796875,13.237C87.417191796875,13.4076,87.600691796875,13.7243,87.600691796875,14.0672C87.600691796875,14.4102,87.417191796875,14.7269,87.119691796875,14.8975L64.603691796875,27.9955ZM35.279591796874996,45.0461C34.983491796875,45.217,34.618691796875,45.217,34.322691796875,45.0461L11.628921796875,31.9367C10.996221796875,31.5674,10.996221796875,30.6531,11.628921796875,30.2838L34.167591796875,17.182C34.462091796875,17.0054,34.829991796875,17.0054,35.124491796875,17.182L57.818291796875,30.2914C58.450991796875,30.6607,58.450991796875,31.5749,57.818291796875,31.9442L35.279591796874996,45.0461ZM94.120691796875,45.0461C93.824591796875,45.217,93.459791796875,45.217,93.163791796875,45.0461L70.46999179687501,31.9367C69.83729179687501,31.5674,69.83729179687501,30.6531,70.46999179687501,30.2838L93.008691796875,17.182C93.303191796875,17.0054,93.671091796875,17.0054,93.965591796875,17.182L116.659591796875,30.2914C117.291591796875,30.6607,117.291591796875,31.5749,116.659591796875,31.9442L94.120691796875,45.0461ZM91.204491796875,49.9631L91.128891796875,76.0344C91.129091796875,76.3768,90.946391796875,76.6932,90.649791796875,76.8642C90.353091796875,77.0351,89.987691796875,77.0346,89.691591796875,76.8627L66.997891796875,63.7533C66.70119179687501,63.5829,66.51799179687501,63.2671,66.51749179687499,62.925L66.593191796875,36.8537C66.592891796875,36.5113,66.775591796875,36.1948,67.07229179687499,36.0239C67.368891796875,35.8529,67.734291796875,35.8535,68.030391796875,36.0253L90.724191796875,49.1347C91.019091796875,49.3032,91.202091796875,49.6159,91.204491796875,49.9555L91.204491796875,49.9631ZM36.784891796875,49.9631C36.783091796875,49.6203,36.966891796875004,49.3034,37.265291796875005,49.1348L59.958991796875,36.0253C60.594291796875,35.6566,61.390991796875,36.1115,61.396291796875,36.8461L61.471991796875,62.9212C61.471391796875,63.2633,61.288291796875,63.5791,60.991591796875,63.7495L38.297891796875,76.8589C38.001691796875,77.0308,37.636291796875,77.0314,37.339691796875,76.8604C37.042991796875,76.6894,36.860291796875,76.373,36.860591796875,76.0306L36.784891796875,49.9631ZM64.603691796875,95.6342C64.306391796875,95.8006,63.943991796875,95.8006,63.646791796875,95.6342L40.952991796875,82.5248C40.320291796875,82.1555,40.320291796875,81.2413,40.952991796875,80.8719L63.468991796875,67.7777C63.763491796875,67.6011,64.131391796875,67.6011,64.42589179687499,67.7777L87.119691796875,80.8871C87.752391796875,81.2564,87.752391796875,82.1706,87.119691796875,82.5399L64.603691796875,95.6342Z" fill="#3D3D3D" fill-opacity="1"/></g></g></svg>