<svg xmlns="http://www.w3.org/2000/svg" xmlns:xlink="http://www.w3.org/1999/xlink" fill="none" version="1.1" width="128" height="128" viewBox="0 0 128 128"><defs><clipPath id="master_svg0_11_136"><rect x="128" y="0" width="128" height="128" rx="0"/></clipPath></defs><g transform="matrix(-1,0,0,1,256,0)" clip-path="url(#master_svg0_11_136)"><g><path d="M189.0667,113.067C191.2,101.333,222.13330000000002,93.6,236.8,70.4C228.8,74.6667,218.9333,77.3333,208,77.3333C203.73329999999999,77.3333,199.73329999999999,77.0667,195.73329999999999,76.2667C185.8667,85.0667,163.4667,91.2,164.5333,110.667Q165.6,135.733,213.86669999999998,125.067Q186.6667,125.6,189.0667,113.067ZM221.86669999999998,96.5333C205.3333,105.333,194.6667,110.667,194.6667,114.667C194.6667,120,212,121.333,218.6667,120.533C226.9333,119.467,237.067,106.4,241.6,108.533C246.13299999999998,110.667,245.6,118.4,240.267,127.467C247.46699999999998,121.867,254.667,107.733,248,98.6667C241.333,89.8667,228.8,93.0667,221.86669999999998,96.5333ZM174.6667,74.4C173.8667,74.6667,173.0667,74.6667,172,74.6667C167.73329999999999,74.6667,163.73329999999999,72.8,161.0667,69.8667C160,78.6667,154.6667,86.4,146.9333,90.4C148.26670000000001,90.6667,149.3333,90.6667,150.6667,90.6667C157.0667,90.6667,162.9333,87.2,165.8667,81.8667C168,78.4,170.9333,75.7333,174.6667,74.4ZM171.73329999999999,46.4C166.4,48.5333,162.6667,53.8667,162.6667,60C162.6667,65.0667,166.9333,69.3333,172,69.3333C180,69.3333,186.6667,59.2,186.6667,46.6667C186.6667,41.6,185.6,36.8,183.73329999999999,33.0667C182.1333,38.9333,177.8667,44,171.73329999999999,46.4ZM142.4,41.3333C144.8,33.0667,157.6,30.1333,155.4667,18.6667C153.3333,30.9333,144.26670000000001,29.3333,140,39.4667C136,49.3333,141.3333,58.6667,136,67.4667C144,56,138.6667,54.9333,142.4,41.3333ZM192,46.6667C192,54.9333,189.3333,62.4,185.3333,67.4667C192,70.4,199.73329999999999,72,208,72C226.13330000000002,72,241.6,64.2667,247.733,53.3333C240,56.5333,228.53300000000002,58.6667,216,58.6667C233.6,58.6667,248.8,49.6,255.2,36.5333C250.933,32.8,243.2,29.8667,233.333,28C238.13299999999998,27.2,242.4,25.8667,246.13299999999998,24.5333C238.933,19.2,229.333,16,218.6667,16C206.13330000000002,16,194.6667,20.5333,186.9333,28C190.1333,32.8,192,39.4667,192,46.6667ZM145.8667,82.6667C144.8,80.8,145.3333,78.4,147.2,77.3333C153.0667,73.8667,157.0667,67.4667,157.0667,60C157.0667,51.4667,162.4,44.2667,169.8667,41.3333C170.1333,41.0667,170.4,41.0667,170.9333,40.8C171.4667,40.5333,172,40.2667,172.5333,40C172.8,39.7333,173.3333,39.4667,173.6,39.4667C174.1333,39.2,174.4,38.9333,174.9333,38.6667C175.2,38.4,175.73329999999999,38.1333,176,37.8667C176.5333,37.6,176.8,37.3333,177.3333,36.8C177.6,36.5333,177.8667,36.2667,178.4,36C178.6667,35.7333,179.2,35.2,179.4667,34.9333L179.73329999999999,34.6667C186.9333,26.9333,189.6,15.4667,185.3333,5.06667C184.8,3.73333,183.4667,0,182.4,0C179.73329999999999,0,182.4,6.13333,181.0667,15.4667C180.5333,18.9333,179.4667,22.1333,177.8667,24.5333C178.1333,22.6667,178.4,20.5333,178.4,18.6667C178.4,13.8667,176.26670000000001,9.06667,174.4,10.1333C175.73329999999999,17.6,173.3333,24.8,168.8,30.1333C168.26670000000001,30.6667,167.4667,31.4667,166.9333,32C166.6667,32.2667,166.6667,32.2667,166.4,32.5333C163.73329999999999,34.9333,160.26670000000001,36.5333,156.5333,37.6C150.9333,39.2,146.6667,44.5333,146.6667,50.6667C146.6667,58.6667,142.1333,65.8667,135.46667,69.3333C135.2,69.3333,134.93333,69.3333,134.66667,69.3333C130.93333,69.3333,128,72.2667,128,76C128,82.6667,133.33333,88,140,88C143.2,88,146.1333,86.6667,148.26670000000001,84.5333C147.2,84.2667,146.4,83.7333,145.8667,82.6667ZM150.4,51.7333C152.5333,48.5333,157.3333,46.6667,158.9333,48C153.3333,52,156,58.6667,150.6667,57.3333C149.0667,56.8,148.26670000000001,55.2,150.4,51.7333Z" fill="#3D3D3D" fill-opacity="1"/></g></g></svg>