<svg xmlns="http://www.w3.org/2000/svg" xmlns:xlink="http://www.w3.org/1999/xlink" fill="none" version="1.1" width="128" height="128" viewBox="0 0 128 128"><defs><clipPath id="master_svg0_11_255"><rect x="0" y="0" width="128" height="128" rx="0"/></clipPath></defs><g clip-path="url(#master_svg0_11_255)"><g><path d="M8.438926696777344,41.754010971069334L23.866126696777343,57.26911097106934L36.34402669677735,44.72011097106933L117.10992669677735,127.99951097106934C123.15992669677735,127.72751097106934,127.89292669677734,123.26751097106934,127.99992669677735,116.81951097106933L45.41892669677734,35.59361097106934L61.29992669677734,19.622100971069337L36.79782669677734,13.233510971069336L8.438926696777344,41.754010971069334Z" fill="#2B3137" fill-opacity="1"/></g><g><path d="M2.5403,115.451C-0.501747,119.609,-0.516944,122.698,0.952207,125.262C4.23076,128.796,8.16231,128.036,12.0689,125.262C14.9534,123.031,20.5948,114.803,22.9587,112.029C25.3226,109.254,30.0126,105.936,33.1679,104.499L33.1679,99.9358L34.3022,99.0232C45.143,110.374,57.1625,117.048,70.6016,118.645C82.5615,120.295,92.5968,117.584,100.549,111.116C110.889,103.743,117.11,94.9162,120.059,83.9643C121.491,78.4129,123.142,69.6572,120.74,56.3565Q117.491,43.2316,100.095,22.1319Q86.3606,5.81199,64.0223,0C82.8769,12.0909,95.1584,26.6093,101.229,41.0695C105.517,50.2149,108.955,59.7897,108.035,71.1872C107.8,79.9067,105.338,87.9836,96.6918,94.2317C90.3441,99.153,82.6762,102.467,72.6434,102.902C59.5748,103.87,48.0581,95.9864,37.9322,86.9305C33.7458,88.0376,30.0132,89.9468,27.4961,94.0036L22.7318,94.2317C21.9729,97.2428,17.6485,102.674,12.7495,106.781C11.3396,107.963,8.86712,109.22,7.07772,110.66C5.33676,112.06,4.18762,113.651,2.5403,115.451Z" fill="#2B3137" fill-opacity="1"/></g></g></svg>